<svg width="63" height="58" viewBox="0 0 63 58" fill="none" xmlns="http://www.w3.org/2000/svg">
<g id="Group 14">
<g id="Group 7">
<g id="Group 6">
<g id="Subtract">
<mask id="path-1-inside-1_335_241" fill="white">
<path fill-rule="evenodd" clip-rule="evenodd" d="M48.2862 19.882C46.9177 18.5314 44.7105 19.1845 43.5431 20.7122C40.8725 24.207 36.6611 26.4615 31.9231 26.4615C27.251 26.4615 23.091 24.2693 20.4154 20.8574C19.2291 19.3445 17.0142 18.7193 15.6627 20.0868C11.5433 24.255 9 29.9843 9 36.3077V37C9 38.6569 10.3431 40 12 40H52.1539C53.8107 40 55.1539 38.6569 55.1539 37V36.3077C55.1539 29.8801 52.5261 24.0663 48.2862 19.882Z"/>
</mask>
<path fill-rule="evenodd" clip-rule="evenodd" d="M48.2862 19.882C46.9177 18.5314 44.7105 19.1845 43.5431 20.7122C40.8725 24.207 36.6611 26.4615 31.9231 26.4615C27.251 26.4615 23.091 24.2693 20.4154 20.8574C19.2291 19.3445 17.0142 18.7193 15.6627 20.0868C11.5433 24.255 9 29.9843 9 36.3077V37C9 38.6569 10.3431 40 12 40H52.1539C53.8107 40 55.1539 38.6569 55.1539 37V36.3077C55.1539 29.8801 52.5261 24.0663 48.2862 19.882Z" fill="#204B74"/>
<path d="M48.2862 19.882L48.9886 19.1702L48.2862 19.882ZM42.7485 20.105C40.259 23.3629 36.3363 25.4615 31.9231 25.4615V27.4615C36.9859 27.4615 41.4861 25.0511 44.3377 21.3194L42.7485 20.105ZM31.9231 25.4615C27.5712 25.4615 23.6965 23.4209 21.2024 20.2403L19.6285 21.4745C22.4854 25.1177 26.9308 27.4615 31.9231 27.4615V25.4615ZM10 36.3077C10 30.258 12.432 24.7783 16.374 20.7897L14.9515 19.3838C10.6546 23.7316 8 29.7106 8 36.3077H10ZM10 37V36.3077H8V37H10ZM52.1539 39H12V41H52.1539V39ZM54.1539 36.3077V37H56.1539V36.3077H54.1539ZM47.5837 20.5937C51.641 24.5979 54.1539 30.1584 54.1539 36.3077H56.1539C56.1539 29.6018 53.4111 23.5347 48.9886 19.1702L47.5837 20.5937ZM8 37C8 39.2091 9.79087 41 12 41V39C10.8954 39 10 38.1046 10 37H8ZM21.2024 20.2403C20.4725 19.3096 19.4185 18.636 18.2974 18.4114C17.1554 18.1826 15.9031 18.4209 14.9515 19.3838L16.374 20.7897C16.7738 20.3851 17.3047 20.2523 17.9046 20.3725C18.5254 20.4968 19.172 20.8923 19.6285 21.4745L21.2024 20.2403ZM52.1539 41C54.363 41 56.1539 39.2091 56.1539 37H54.1539C54.1539 38.1046 53.2584 39 52.1539 39V41ZM44.3377 21.3194C44.787 20.7314 45.4286 20.3279 46.048 20.1957C46.6463 20.068 47.1789 20.1942 47.5837 20.5937L48.9886 19.1702C48.0249 18.2192 46.7697 17.9966 45.6305 18.2397C44.5123 18.4784 43.4667 19.1652 42.7485 20.105L44.3377 21.3194Z" fill="black" mask="url(#path-1-inside-1_335_241)"/>
</g>
<circle id="Ellipse 1" cx="31.9231" cy="11.8462" r="11.3462" fill="#C7E4FF" stroke="black"/>
</g>
<g id="Group 4">
<rect id="Rectangle 1" x="0.5" y="37.5" width="62" height="20" rx="3.5" fill="#00B2FF" stroke="black"/>
</g>
</g>
<g id="Acessar">
<path d="M10.4147 52H9.30676L12.5113 43.2727H13.6022L16.8068 52H15.6988L13.0909 44.6534H13.0227L10.4147 52ZM10.8238 48.5909H15.2897V49.5284H10.8238V48.5909Z" fill="white"/>
<path d="M20.6889 52.1364C20.0752 52.1364 19.5468 51.9915 19.1036 51.7017C18.6605 51.4119 18.3195 51.0128 18.0809 50.5043C17.8423 49.9957 17.723 49.4148 17.723 48.7614C17.723 48.0966 17.8451 47.51 18.0894 47.0014C18.3366 46.4901 18.6803 46.0909 19.1207 45.804C19.5639 45.5142 20.0809 45.3693 20.6718 45.3693C21.132 45.3693 21.5468 45.4546 21.9161 45.625C22.2855 45.7955 22.588 46.0341 22.8238 46.3409C23.0596 46.6477 23.2059 47.0057 23.2627 47.4148H22.257C22.1803 47.1165 22.0099 46.8523 21.7457 46.6222C21.4843 46.3892 21.132 46.2727 20.6889 46.2727C20.2968 46.2727 19.9531 46.375 19.6576 46.5796C19.365 46.7813 19.1363 47.0668 18.9715 47.4361C18.8096 47.8026 18.7286 48.233 18.7286 48.7273C18.7286 49.233 18.8082 49.6733 18.9673 50.0483C19.1292 50.4233 19.3565 50.7145 19.6491 50.9219C19.9445 51.1293 20.2911 51.233 20.6889 51.233C20.9502 51.233 21.1874 51.1875 21.4005 51.0966C21.6136 51.0057 21.794 50.875 21.9417 50.7046C22.0894 50.5341 22.1945 50.3296 22.257 50.0909H23.2627C23.2059 50.4773 23.0653 50.8253 22.8409 51.135C22.6193 51.4418 22.3252 51.6861 21.9588 51.8679C21.5951 52.0469 21.1718 52.1364 20.6889 52.1364Z" fill="white"/>
<path d="M27.4772 52.1364C26.8465 52.1364 26.3025 51.9972 25.8451 51.7188C25.3906 51.4375 25.0397 51.0455 24.7926 50.5426C24.5482 50.0369 24.4261 49.4489 24.4261 48.7784C24.4261 48.108 24.5482 47.5171 24.7926 47.0057C25.0397 46.4915 25.3835 46.0909 25.8238 45.804C26.267 45.5142 26.784 45.3693 27.3749 45.3693C27.7159 45.3693 28.0525 45.4261 28.3849 45.5398C28.7173 45.6534 29.0198 45.8381 29.2926 46.0938C29.5653 46.3466 29.7826 46.6818 29.9445 47.0994C30.1065 47.5171 30.1874 48.0313 30.1874 48.6421V49.0682H25.142V48.1989H29.1647C29.1647 47.8296 29.0909 47.5 28.9431 47.2102C28.7982 46.9205 28.5909 46.6918 28.321 46.5242C28.0539 46.3565 27.7386 46.2727 27.3749 46.2727C26.9744 46.2727 26.6278 46.3722 26.3352 46.571C26.0454 46.7671 25.8224 47.0227 25.6661 47.3381C25.5099 47.6534 25.4318 47.9915 25.4318 48.3523V48.9318C25.4318 49.4261 25.517 49.8452 25.6874 50.1889C25.8607 50.5298 26.1008 50.7898 26.4076 50.9688C26.7144 51.1449 27.071 51.233 27.4772 51.233C27.7414 51.233 27.9801 51.196 28.1931 51.1222C28.409 51.0455 28.5951 50.9318 28.7514 50.7813C28.9076 50.6278 29.0284 50.4375 29.1136 50.2102L30.0852 50.483C29.9829 50.8125 29.811 51.1023 29.5695 51.3523C29.3281 51.5994 29.0298 51.7926 28.6747 51.9318C28.3195 52.0682 27.9204 52.1364 27.4772 52.1364Z" fill="white"/>
<path d="M36.3536 46.9205L35.4502 47.1761C35.3934 47.0256 35.3096 46.8793 35.1988 46.7372C35.0909 46.5923 34.9431 46.473 34.7556 46.3793C34.5681 46.2855 34.3281 46.2386 34.0355 46.2386C33.6349 46.2386 33.3011 46.331 33.034 46.5156C32.7698 46.6975 32.6377 46.929 32.6377 47.2102C32.6377 47.4602 32.7286 47.6577 32.9105 47.8026C33.0923 47.9475 33.3764 48.0682 33.7627 48.1648L34.7343 48.4034C35.3195 48.5455 35.7556 48.7628 36.0426 49.0554C36.3295 49.3452 36.473 49.7188 36.473 50.1761C36.473 50.5511 36.365 50.8864 36.1491 51.1818C35.936 51.4773 35.6377 51.7102 35.2542 51.8807C34.8707 52.0511 34.4247 52.1364 33.9161 52.1364C33.2485 52.1364 32.696 51.9915 32.2585 51.7017C31.821 51.4119 31.544 50.9886 31.4275 50.4318L32.382 50.1932C32.473 50.5455 32.6448 50.8097 32.8977 50.9858C33.1534 51.1619 33.4872 51.25 33.8991 51.25C34.3678 51.25 34.74 51.1506 35.0156 50.9517C35.294 50.75 35.4332 50.5085 35.4332 50.2273C35.4332 50 35.3536 49.8097 35.1945 49.6563C35.0355 49.5 34.7911 49.3835 34.4616 49.3068L33.3707 49.0511C32.7713 48.9091 32.3309 48.6889 32.0497 48.3906C31.7712 48.0895 31.632 47.7131 31.632 47.2614C31.632 46.8921 31.7357 46.5653 31.9431 46.2813C32.1534 45.9972 32.4389 45.7742 32.7997 45.6122C33.1633 45.4503 33.5752 45.3693 34.0355 45.3693C34.6832 45.3693 35.1917 45.5114 35.561 45.7955C35.9332 46.0796 36.1974 46.4546 36.3536 46.9205Z" fill="white"/>
<path d="M42.6232 46.9205L41.7198 47.1761C41.6629 47.0256 41.5791 46.8793 41.4683 46.7372C41.3604 46.5923 41.2127 46.473 41.0252 46.3793C40.8377 46.2855 40.5976 46.2386 40.305 46.2386C39.9044 46.2386 39.5706 46.331 39.3036 46.5156C39.0394 46.6975 38.9073 46.929 38.9073 47.2102C38.9073 47.4602 38.9982 47.6577 39.18 47.8026C39.3618 47.9475 39.6459 48.0682 40.0323 48.1648L41.0039 48.4034C41.5891 48.5455 42.0252 48.7628 42.3121 49.0554C42.599 49.3452 42.7425 49.7188 42.7425 50.1761C42.7425 50.5511 42.6345 50.8864 42.4186 51.1818C42.2056 51.4773 41.9073 51.7102 41.5237 51.8807C41.1402 52.0511 40.6942 52.1364 40.1857 52.1364C39.5181 52.1364 38.9655 51.9915 38.528 51.7017C38.0905 51.4119 37.8135 50.9886 37.697 50.4318L38.6516 50.1932C38.7425 50.5455 38.9144 50.8097 39.1672 50.9858C39.4229 51.1619 39.7567 51.25 40.1686 51.25C40.6374 51.25 41.0095 51.1506 41.2851 50.9517C41.5635 50.75 41.7027 50.5085 41.7027 50.2273C41.7027 50 41.6232 49.8097 41.4641 49.6563C41.305 49.5 41.0607 49.3835 40.7311 49.3068L39.6402 49.0511C39.0408 48.9091 38.6004 48.6889 38.3192 48.3906C38.0408 48.0895 37.9016 47.7131 37.9016 47.2614C37.9016 46.8921 38.0053 46.5653 38.2127 46.2813C38.4229 45.9972 38.7084 45.7742 39.0692 45.6122C39.4328 45.4503 39.8448 45.3693 40.305 45.3693C40.9527 45.3693 41.4612 45.5114 41.8306 45.7955C42.2027 46.0796 42.4669 46.4546 42.6232 46.9205Z" fill="white"/>
<path d="M46.1825 52.1534C45.7677 52.1534 45.3913 52.0753 45.0532 51.919C44.7151 51.76 44.4467 51.5313 44.2478 51.233C44.049 50.9318 43.9495 50.5682 43.9495 50.1421C43.9495 49.7671 44.0234 49.4631 44.1711 49.2301C44.3188 48.9943 44.5163 48.8097 44.7634 48.6761C45.0106 48.5426 45.2833 48.4432 45.5816 48.3778C45.8828 48.3097 46.1853 48.2557 46.4893 48.2159C46.887 48.1648 47.2095 48.1264 47.4566 48.1009C47.7066 48.0725 47.8884 48.0256 48.0021 47.9602C48.1186 47.8949 48.1768 47.7813 48.1768 47.6193V47.5852C48.1768 47.1648 48.0617 46.8381 47.8316 46.6051C47.6043 46.3722 47.2592 46.2557 46.7961 46.2557C46.316 46.2557 45.9396 46.3608 45.6668 46.571C45.3941 46.7813 45.2024 47.0057 45.0916 47.2443L44.137 46.9034C44.3075 46.5057 44.5347 46.196 44.8188 45.9744C45.1058 45.75 45.4183 45.5938 45.7563 45.5057C46.0972 45.4148 46.4325 45.3693 46.762 45.3693C46.9722 45.3693 47.2137 45.3949 47.4865 45.446C47.762 45.4943 48.0276 45.5952 48.2833 45.7486C48.5418 45.902 48.7563 46.1335 48.9268 46.4432C49.0972 46.7528 49.1825 47.1676 49.1825 47.6875V52H48.1768V51.1136H48.1257C48.0575 51.2557 47.9438 51.4077 47.7847 51.5696C47.6257 51.7315 47.414 51.8693 47.1498 51.983C46.8856 52.0966 46.5632 52.1534 46.1825 52.1534ZM46.3359 51.25C46.7336 51.25 47.0688 51.1719 47.3416 51.0156C47.6171 50.8594 47.8245 50.6577 47.9637 50.4105C48.1058 50.1634 48.1768 49.9034 48.1768 49.6307V48.7102C48.1342 48.7614 48.0404 48.8082 47.8955 48.8509C47.7535 48.8906 47.5887 48.9261 47.4012 48.9574C47.2166 48.9858 47.0362 49.0114 46.86 49.0341C46.6867 49.054 46.5461 49.071 46.4382 49.0852C46.1768 49.1193 45.9325 49.1747 45.7052 49.2514C45.4808 49.3253 45.299 49.4375 45.1597 49.5881C45.0234 49.7358 44.9552 49.9375 44.9552 50.1932C44.9552 50.5426 45.0845 50.8068 45.343 50.9858C45.6043 51.1619 45.9353 51.25 46.3359 51.25Z" fill="white"/>
<path d="M51.0181 52V45.4546H51.9896V46.4432H52.0578C52.1771 46.1193 52.3931 45.8565 52.7056 45.6548C53.0181 45.4531 53.3703 45.3523 53.7624 45.3523C53.8362 45.3523 53.9286 45.3537 54.0394 45.3565C54.1502 45.3594 54.234 45.3636 54.2908 45.3693V46.3921C54.2567 46.3835 54.1786 46.3707 54.0564 46.3537C53.9371 46.3338 53.8107 46.3239 53.6771 46.3239C53.359 46.3239 53.0749 46.3906 52.8249 46.5242C52.5777 46.6548 52.3817 46.8367 52.2368 47.0696C52.0948 47.2997 52.0237 47.5625 52.0237 47.858V52H51.0181Z" fill="white"/>
</g>
</g>
</svg>
