<svg width="63" height="58" viewBox="0 0 63 58" fill="none" xmlns="http://www.w3.org/2000/svg">
<g id="Group 14">
<g id="Group 7">
<g id="Group 6">
<path id="Subtract" fill-rule="evenodd" clip-rule="evenodd" d="M48.2862 19.882C46.9177 18.5314 44.7105 19.1845 43.5431 20.7122C40.8725 24.207 36.6611 26.4615 31.9231 26.4615C27.251 26.4615 23.091 24.2693 20.4154 20.8574C19.2291 19.3445 17.0142 18.7193 15.6627 20.0868C11.5433 24.255 9 29.9843 9 36.3077V37C9 38.6569 10.3431 40 12 40H52.1539C53.8107 40 55.1539 38.6569 55.1539 37V36.3077C55.1539 29.8801 52.5261 24.0663 48.2862 19.882Z" fill="#727272"/>
<circle id="Ellipse 1" cx="31.9231" cy="11.8462" r="11.8462" fill="#B1B1B1"/>
</g>
<g id="Group 4">
<rect id="Rectangle 1" y="37" width="63" height="21" rx="4" fill="#C6C6C6"/>
</g>
</g>
<g id="Acessar">
<path d="M10.4148 52H9.30682L12.5114 43.2727H13.6023L16.8068 52H15.6989L13.0909 44.6534H13.0227L10.4148 52ZM10.8239 48.5909H15.2898V49.5284H10.8239V48.5909Z" fill="black"/>
<path d="M20.6889 52.1364C20.0753 52.1364 19.5469 51.9915 19.1037 51.7017C18.6605 51.4119 18.3196 51.0128 18.081 50.5043C17.8423 49.9957 17.723 49.4148 17.723 48.7614C17.723 48.0966 17.8452 47.51 18.0895 47.0014C18.3367 46.4901 18.6804 46.0909 19.1207 45.804C19.5639 45.5142 20.081 45.3693 20.6719 45.3693C21.1321 45.3693 21.5469 45.4546 21.9162 45.625C22.2855 45.7955 22.5881 46.0341 22.8239 46.3409C23.0597 46.6477 23.206 47.0057 23.2628 47.4148H22.2571C22.1804 47.1165 22.0099 46.8523 21.7457 46.6222C21.4844 46.3892 21.1321 46.2727 20.6889 46.2727C20.2969 46.2727 19.9531 46.375 19.6577 46.5796C19.3651 46.7813 19.1364 47.0668 18.9716 47.4361C18.8097 47.8026 18.7287 48.233 18.7287 48.7273C18.7287 49.233 18.8082 49.6733 18.9673 50.0483C19.1293 50.4233 19.3565 50.7145 19.6492 50.9219C19.9446 51.1293 20.2912 51.233 20.6889 51.233C20.9503 51.233 21.1875 51.1875 21.4006 51.0966C21.6136 51.0057 21.794 50.875 21.9418 50.7046C22.0895 50.5341 22.1946 50.3296 22.2571 50.0909H23.2628C23.206 50.4773 23.0653 50.8253 22.8409 51.135C22.6193 51.4418 22.3253 51.6861 21.9588 51.8679C21.5952 52.0469 21.1719 52.1364 20.6889 52.1364Z" fill="black"/>
<path d="M27.4773 52.1364C26.8466 52.1364 26.3026 51.9972 25.8452 51.7188C25.3906 51.4375 25.0398 51.0455 24.7926 50.5426C24.5483 50.0369 24.4261 49.4489 24.4261 48.7784C24.4261 48.108 24.5483 47.5171 24.7926 47.0057C25.0398 46.4915 25.3835 46.0909 25.8239 45.804C26.2671 45.5142 26.7841 45.3693 27.375 45.3693C27.7159 45.3693 28.0526 45.4261 28.3849 45.5398C28.7173 45.6534 29.0199 45.8381 29.2926 46.0938C29.5653 46.3466 29.7827 46.6818 29.9446 47.0994C30.1065 47.5171 30.1875 48.0313 30.1875 48.6421V49.0682H25.1421V48.1989H29.1648C29.1648 47.8296 29.0909 47.5 28.9432 47.2102C28.7983 46.9205 28.5909 46.6918 28.321 46.5242C28.054 46.3565 27.7386 46.2727 27.375 46.2727C26.9744 46.2727 26.6278 46.3722 26.3352 46.571C26.0455 46.7671 25.8224 47.0227 25.6662 47.3381C25.5099 47.6534 25.4318 47.9915 25.4318 48.3523V48.9318C25.4318 49.4261 25.5171 49.8452 25.6875 50.1889C25.8608 50.5298 26.1009 50.7898 26.4077 50.9688C26.7145 51.1449 27.071 51.233 27.4773 51.233C27.7415 51.233 27.9801 51.196 28.1932 51.1222C28.4091 51.0455 28.5952 50.9318 28.7514 50.7813C28.9077 50.6278 29.0284 50.4375 29.1136 50.2102L30.0852 50.483C29.983 50.8125 29.8111 51.1023 29.5696 51.3523C29.3281 51.5994 29.0298 51.7926 28.6747 51.9318C28.3196 52.0682 27.9205 52.1364 27.4773 52.1364Z" fill="black"/>
<path d="M36.3537 46.9205L35.4503 47.1761C35.3935 47.0256 35.3097 46.8793 35.1989 46.7372C35.0909 46.5923 34.9432 46.473 34.7557 46.3793C34.5682 46.2855 34.3281 46.2386 34.0355 46.2386C33.6349 46.2386 33.3011 46.331 33.0341 46.5156C32.7699 46.6975 32.6378 46.929 32.6378 47.2102C32.6378 47.4602 32.7287 47.6577 32.9105 47.8026C33.0923 47.9475 33.3764 48.0682 33.7628 48.1648L34.7344 48.4034C35.3196 48.5455 35.7557 48.7628 36.0426 49.0554C36.3296 49.3452 36.473 49.7188 36.473 50.1761C36.473 50.5511 36.3651 50.8864 36.1492 51.1818C35.9361 51.4773 35.6378 51.7102 35.2543 51.8807C34.8707 52.0511 34.4247 52.1364 33.9162 52.1364C33.2486 52.1364 32.696 51.9915 32.2585 51.7017C31.821 51.4119 31.544 50.9886 31.4276 50.4318L32.3821 50.1932C32.473 50.5455 32.6449 50.8097 32.8977 50.9858C33.1534 51.1619 33.4872 51.25 33.8992 51.25C34.3679 51.25 34.7401 51.1506 35.0156 50.9517C35.294 50.75 35.4332 50.5085 35.4332 50.2273C35.4332 50 35.3537 49.8097 35.1946 49.6563C35.0355 49.5 34.7912 49.3835 34.4617 49.3068L33.3707 49.0511C32.7713 48.9091 32.331 48.6889 32.0497 48.3906C31.7713 48.0895 31.6321 47.7131 31.6321 47.2614C31.6321 46.8921 31.7358 46.5653 31.9432 46.2813C32.1534 45.9972 32.4389 45.7742 32.7997 45.6122C33.1634 45.4503 33.5753 45.3693 34.0355 45.3693C34.6832 45.3693 35.1918 45.5114 35.5611 45.7955C35.9332 46.0796 36.1974 46.4546 36.3537 46.9205Z" fill="black"/>
<path d="M42.6232 46.9205L41.7198 47.1761C41.663 47.0256 41.5792 46.8793 41.4684 46.7372C41.3604 46.5923 41.2127 46.473 41.0252 46.3793C40.8377 46.2855 40.5977 46.2386 40.305 46.2386C39.9045 46.2386 39.5707 46.331 39.3036 46.5156C39.0394 46.6975 38.9073 46.929 38.9073 47.2102C38.9073 47.4602 38.9982 47.6577 39.18 47.8026C39.3619 47.9475 39.646 48.0682 40.0323 48.1648L41.0039 48.4034C41.5891 48.5455 42.0252 48.7628 42.3121 49.0554C42.5991 49.3452 42.7425 49.7188 42.7425 50.1761C42.7425 50.5511 42.6346 50.8864 42.4187 51.1818C42.2056 51.4773 41.9073 51.7102 41.5238 51.8807C41.1403 52.0511 40.6943 52.1364 40.1857 52.1364C39.5181 52.1364 38.9656 51.9915 38.5281 51.7017C38.0906 51.4119 37.8136 50.9886 37.6971 50.4318L38.6516 50.1932C38.7425 50.5455 38.9144 50.8097 39.1673 50.9858C39.4229 51.1619 39.7568 51.25 40.1687 51.25C40.6374 51.25 41.0096 51.1506 41.2852 50.9517C41.5636 50.75 41.7028 50.5085 41.7028 50.2273C41.7028 50 41.6232 49.8097 41.4641 49.6563C41.305 49.5 41.0607 49.3835 40.7312 49.3068L39.6403 49.0511C39.0408 48.9091 38.6005 48.6889 38.3193 48.3906C38.0408 48.0895 37.9016 47.7131 37.9016 47.2614C37.9016 46.8921 38.0053 46.5653 38.2127 46.2813C38.4229 45.9972 38.7085 45.7742 39.0693 45.6122C39.4329 45.4503 39.8448 45.3693 40.305 45.3693C40.9528 45.3693 41.4613 45.5114 41.8306 45.7955C42.2028 46.0796 42.467 46.4546 42.6232 46.9205Z" fill="black"/>
<path d="M46.1825 52.1534C45.7678 52.1534 45.3913 52.0753 45.0533 51.919C44.7152 51.76 44.4467 51.5313 44.2479 51.233C44.049 50.9318 43.9496 50.5682 43.9496 50.1421C43.9496 49.7671 44.0234 49.4631 44.1712 49.2301C44.3189 48.9943 44.5163 48.8097 44.7635 48.6761C45.0107 48.5426 45.2834 48.4432 45.5817 48.3778C45.8828 48.3097 46.1854 48.2557 46.4894 48.2159C46.8871 48.1648 47.2095 48.1264 47.4567 48.1009C47.7067 48.0725 47.8885 48.0256 48.0021 47.9602C48.1186 47.8949 48.1769 47.7813 48.1769 47.6193V47.5852C48.1769 47.1648 48.0618 46.8381 47.8317 46.6051C47.6044 46.3722 47.2592 46.2557 46.7962 46.2557C46.3161 46.2557 45.9396 46.3608 45.6669 46.571C45.3942 46.7813 45.2024 47.0057 45.0916 47.2443L44.1371 46.9034C44.3075 46.5057 44.5348 46.196 44.8189 45.9744C45.1058 45.75 45.4183 45.5938 45.7564 45.5057C46.0973 45.4148 46.4325 45.3693 46.7621 45.3693C46.9723 45.3693 47.2138 45.3949 47.4865 45.446C47.7621 45.4943 48.0277 45.5952 48.2834 45.7486C48.5419 45.902 48.7564 46.1335 48.9269 46.4432C49.0973 46.7528 49.1825 47.1676 49.1825 47.6875V52H48.1769V51.1136H48.1257C48.0575 51.2557 47.9439 51.4077 47.7848 51.5696C47.6257 51.7315 47.4141 51.8693 47.1499 51.983C46.8857 52.0966 46.5632 52.1534 46.1825 52.1534ZM46.3359 51.25C46.7337 51.25 47.0689 51.1719 47.3416 51.0156C47.6172 50.8594 47.8246 50.6577 47.9638 50.4105C48.1058 50.1634 48.1769 49.9034 48.1769 49.6307V48.7102C48.1342 48.7614 48.0405 48.8082 47.8956 48.8509C47.7536 48.8906 47.5888 48.9261 47.4013 48.9574C47.2166 48.9858 47.0362 49.0114 46.8601 49.0341C46.6868 49.054 46.5462 49.071 46.4382 49.0852C46.1769 49.1193 45.9325 49.1747 45.7053 49.2514C45.4808 49.3253 45.299 49.4375 45.1598 49.5881C45.0234 49.7358 44.9553 49.9375 44.9553 50.1932C44.9553 50.5426 45.0845 50.8068 45.343 50.9858C45.6044 51.1619 45.9354 51.25 46.3359 51.25Z" fill="black"/>
<path d="M51.0181 52V45.4546H51.9897V46.4432H52.0579C52.1772 46.1193 52.3931 45.8565 52.7056 45.6548C53.0181 45.4531 53.3704 45.3523 53.7624 45.3523C53.8363 45.3523 53.9286 45.3537 54.0394 45.3565C54.1502 45.3594 54.234 45.3636 54.2908 45.3693V46.3921C54.2568 46.3835 54.1786 46.3707 54.0565 46.3537C53.9371 46.3338 53.8107 46.3239 53.6772 46.3239C53.359 46.3239 53.0749 46.3906 52.8249 46.5242C52.5778 46.6548 52.3818 46.8367 52.2369 47.0696C52.0948 47.2997 52.0238 47.5625 52.0238 47.858V52H51.0181Z" fill="black"/>
</g>
</g>
</svg>
