<svg width="63" height="58" viewBox="0 0 63 58" fill="none" xmlns="http://www.w3.org/2000/svg">
<g id="Group 7">
<g id="Group 6">
<path id="Subtract" fill-rule="evenodd" clip-rule="evenodd" d="M48.2862 19.8819C46.9177 18.5314 44.7105 19.1844 43.5431 20.7122C40.8725 24.207 36.6611 26.4615 31.9231 26.4615C27.251 26.4615 23.091 24.2693 20.4154 20.8574C19.2291 19.3445 17.0142 18.7193 15.6627 20.0867C11.5433 24.255 9 29.9843 9 36.3077V37C9 38.6569 10.3431 40 12 40H52.1539C53.8107 40 55.1539 38.6569 55.1539 37V36.3077C55.1539 29.8801 52.5261 24.0663 48.2862 19.8819Z" fill="#727272"/>
<circle id="Ellipse 1" cx="31.9231" cy="11.8462" r="11.8462" fill="#B1B1B1"/>
</g>
<g id="Group 4">
<rect id="Rectangle 1" y="37" width="63" height="21" rx="4" fill="#C6C6C6"/>
</g>
</g>
</svg>
