<svg width="440" height="440" viewBox="0 0 440 440" fill="none" xmlns="http://www.w3.org/2000/svg">
<path d="M31.3067 149.069C33.0622 145.973 37.6136 146.773 40.9491 148.015C49.4069 151.164 66.5836 157.18 79.3067 159.148C98.607 162.132 110.073 162.541 129.307 159.148C146.581 156.1 156.26 152.712 171.807 144.534C178.943 140.78 186.597 135.646 192.32 131.566C198.401 127.231 206.047 118.068 211.307 123.369V123.369C212.272 124.343 212.553 125.469 212.453 126.591C212.053 131.075 207.7 134.018 204.227 136.882C199.601 140.697 192.154 146.319 183.307 151.085C165.554 160.649 149.332 169.172 129.307 171.242C109.807 173.258 94.5837 172.864 75.3066 169.73C61.5554 167.495 45.3265 161.149 36.9466 157.599C33.3332 156.068 29.3711 152.483 31.3067 149.069V149.069V149.069Z" fill="#25B1D0"/>
<path d="M62.4844 353.533C60.6726 350.445 63.619 346.877 66.3359 344.574C73.2328 338.727 86.9279 326.653 94.9231 316.479C107.046 301.051 113.071 291.211 119.661 272.686C125.579 256.049 127.446 245.895 128.087 228.233C128.381 220.133 127.742 210.899 127.056 203.871C126.327 196.388 122.181 185.157 129.38 183.165V183.165C130.69 182.803 131.796 183.11 132.71 183.745C136.408 186.314 136.777 191.592 137.528 196.044C138.529 201.983 139.693 211.291 139.426 221.402C138.889 241.682 138.212 260.107 130.089 278.67C122.18 296.746 114.308 309.884 102.069 325.218C93.3194 336.179 79.7796 347.277 72.5838 352.848C69.5055 355.232 64.4653 356.908 62.4844 353.533V353.533V353.533Z" fill="#48667B"/>
<path d="M260.059 426.069C256.5 426.068 254.954 421.695 254.371 418.166C252.892 409.206 249.558 391.178 244.942 379.062C237.944 360.69 232.611 350.452 220.15 335.301C208.959 321.693 201.239 314.902 186.485 305.35C179.718 300.97 171.508 296.82 165.158 293.835C158.397 290.656 146.695 288.532 148.662 281.273V281.273C149.02 279.953 149.844 279.15 150.853 278.68C154.93 276.782 159.625 279.15 163.809 280.767C169.39 282.923 177.93 286.655 186.427 292.037C203.47 302.832 218.858 312.804 230.571 329.304C241.977 345.371 249.186 358.89 256.044 377.315C260.947 390.487 263.526 407.883 264.618 416.961C265.086 420.845 263.95 426.071 260.059 426.069V426.069V426.069Z" fill="#25B1D0"/>
<path d="M412.566 290.762C410.815 293.861 406.262 293.067 402.925 291.829C394.463 288.691 377.279 282.696 364.554 280.745C345.25 277.784 333.783 277.39 314.554 280.808C297.284 283.877 287.609 287.278 272.072 295.475C264.94 299.238 257.292 304.382 251.575 308.469C245.499 312.812 237.865 321.984 232.598 316.69V316.69C231.631 315.718 231.35 314.591 231.448 313.47C231.843 308.985 236.192 306.037 239.661 303.168C244.282 299.347 251.723 293.716 260.564 288.939C278.305 279.353 294.516 270.809 314.539 268.714C334.036 266.673 349.26 267.048 368.541 270.157C382.295 272.375 398.531 278.701 406.916 282.24C410.531 283.767 414.498 287.346 412.566 290.762V290.762V290.762Z" fill="#48667B"/>
<path d="M384.243 85.0379C385.987 88.1641 382.964 91.6671 380.197 93.9098C373.175 99.6029 359.221 111.372 351.007 121.368C338.553 136.524 332.315 146.229 325.325 164.604C319.047 181.107 316.96 191.217 315.936 208.861C315.466 216.953 315.904 226.199 316.437 233.241C317.004 240.738 320.905 252.057 313.664 253.889V253.889C312.347 254.223 311.248 253.892 310.348 253.236C306.707 250.586 306.452 245.302 305.798 240.834C304.926 234.874 303.965 225.543 304.452 215.441C305.429 195.177 306.505 176.771 315.029 158.392C323.329 140.495 331.484 127.533 344.053 112.473C353.038 101.708 366.814 90.9122 374.13 85.5004C377.26 83.1848 382.336 81.6193 384.243 85.0379V85.0379V85.0379Z" fill="#25B1D0"/>
<path d="M183.276 13.8136C186.835 13.8328 188.359 18.2134 188.925 21.7457C190.359 30.7127 193.604 48.7572 198.159 60.8971C205.066 79.3041 210.348 89.5688 222.734 104.783C233.857 118.446 241.543 125.276 256.25 134.903C262.994 139.317 271.184 143.508 277.519 146.525C284.265 149.738 295.955 151.921 293.953 159.17V159.17C293.588 160.488 292.76 161.287 291.749 161.751C287.662 163.63 282.979 161.238 278.803 159.6C273.233 157.415 264.712 153.641 256.241 148.216C239.252 137.335 223.914 127.285 212.283 110.727C200.957 94.6021 193.816 81.0472 187.049 62.5874C182.211 49.3913 179.718 31.9823 178.671 22.8982C178.223 19.0122 179.385 13.7927 183.276 13.8136V13.8136V13.8136Z" fill="#48667B"/>
<path d="M59.79 272.117C49.9791 274.018 35.3272 280.799 28.7288 284.011C26.4553 285.118 24.1699 286.782 24.0108 289.306C23.9509 290.256 24.1296 291.291 24.79 292.274C26.5169 294.842 30.3599 293.774 31.4788 293.395C31.6889 293.323 31.8824 293.245 32.0892 293.165C34.62 292.179 52.6162 285.207 63.29 282.195C70.7743 280.083 83.9764 279.226 92.2841 278.885C97.2756 278.68 104.337 278.09 103.79 273.125C103.306 268.739 99.0824 268.594 98.8044 268.59L98.7999 268.589C98.7947 268.589 98.7944 268.589 98.7863 268.589C98.4661 268.591 77.5256 268.679 59.79 272.117Z" fill="#25B1D0"/>
<path d="M183.654 388.078C180.527 397.651 179.278 413.874 178.855 421.237C178.709 423.763 179.037 426.581 181.159 427.95C181.952 428.462 182.934 428.806 184.103 428.703C187.173 428.431 188.116 424.518 188.329 423.353C188.369 423.137 188.395 422.931 188.425 422.713C188.799 420.019 191.511 400.768 194.094 389.898C195.91 382.253 201.624 370.151 205.369 362.676C207.593 358.236 210.5 351.756 205.931 349.823C201.893 348.115 199.713 351.767 199.575 352.008L199.572 352.011C199.57 352.016 199.57 352.016 199.566 352.023C199.414 352.301 189.302 370.786 183.654 388.078Z" fill="#48667B"/>
<path d="M343.288 335.531C349.927 343.069 363.212 352.313 369.314 356.384C371.409 357.781 373.99 358.912 376.231 357.753C377.07 357.319 377.858 356.637 378.357 355.566C379.667 352.755 376.786 349.966 375.894 349.195C375.728 349.051 375.565 348.925 375.393 348.789C373.27 347.108 358.123 335.066 350.099 327.352C344.455 321.926 336.95 310.866 332.421 303.845C329.731 299.673 325.634 293.881 321.679 296.89C318.183 299.549 320.219 303.284 320.356 303.526L320.358 303.53C320.361 303.534 320.361 303.534 320.365 303.541C320.527 303.814 331.297 321.917 343.288 335.531Z" fill="#25B1D0"/>
<path d="M380.35 166.828C390.111 164.683 404.593 157.54 411.11 154.164C413.356 153.001 415.6 151.281 415.697 148.754C415.734 147.802 415.53 146.772 414.845 145.806C413.056 143.282 409.24 144.445 408.131 144.852C407.923 144.929 407.731 145.012 407.527 145.097C405.021 146.146 387.201 153.563 376.604 156.84C369.174 159.138 355.997 160.323 347.7 160.871C342.715 161.2 335.67 161.966 336.339 166.916C336.93 171.288 341.156 171.328 341.434 171.326L341.439 171.326C341.444 171.326 341.444 171.326 341.452 171.325C341.772 171.316 362.704 170.706 380.35 166.828Z" fill="#48667B"/>
<path d="M253.435 53.2313C256.666 43.6931 258.092 27.4855 258.595 20.1277C258.768 17.6027 258.471 14.7816 256.364 13.3887C255.577 12.8679 254.599 12.5134 253.429 12.604C250.356 12.8418 249.371 16.744 249.145 17.906C249.103 18.1224 249.074 18.3277 249.042 18.5457C248.638 21.2349 245.717 40.4551 243.016 51.2952C241.117 58.9197 235.272 70.9571 231.446 78.3903C229.173 82.8057 226.195 89.2541 230.743 91.237C234.762 92.9896 236.982 89.3627 237.123 89.1232L237.125 89.1193C237.128 89.1149 237.128 89.1147 237.132 89.1077C237.287 88.8318 247.599 70.4595 253.435 53.2313Z" fill="#25B1D0"/>
<path d="M96.0873 108.368C89.5436 100.747 76.3745 91.3343 70.3239 87.1859C68.2475 85.7622 65.6802 84.5987 63.4246 85.7298C62.5812 86.1527 61.7843 86.8251 61.2721 87.8888C59.9265 90.6833 62.7733 93.5084 63.655 94.291C63.8192 94.4368 63.9808 94.565 64.1512 94.7034C66.2521 96.4105 81.248 108.644 89.1749 116.46C94.7503 121.958 102.117 133.114 106.557 140.192C109.195 144.397 113.219 150.24 117.211 147.281C120.739 144.667 118.751 140.906 118.617 140.663L118.615 140.659C118.612 140.654 118.612 140.654 118.608 140.647C118.45 140.373 107.907 122.134 96.0873 108.368Z" fill="#48667B"/>
<path fill-rule="evenodd" clip-rule="evenodd" d="M218.29 266.07C243.419 266.07 263.79 245.539 263.79 220.213C263.79 194.887 243.419 174.356 218.29 174.356C193.161 174.356 172.79 194.887 172.79 220.213C172.79 245.539 193.161 266.07 218.29 266.07ZM218.29 253.976C236.792 253.976 251.79 238.86 251.79 220.213C251.79 201.566 236.792 186.45 218.29 186.45C199.788 186.45 184.79 201.566 184.79 220.213C184.79 238.86 199.788 253.976 218.29 253.976Z" fill="#48667B"/>
</svg>
