<svg width="226" height="103" viewBox="0 0 226 103" fill="none" xmlns="http://www.w3.org/2000/svg">
<path d="M0 10.7854C0 7.40488 1.09718 4.77561 3.29155 2.89756C5.53944 0.965852 8.67042 0 12.6845 0C16.7521 0 20.1775 0.402439 22.9606 1.20732V5.07073C20.3915 4.15854 17.0732 3.70244 13.0056 3.70244C7.01127 3.70244 4.01408 6.00976 4.01408 10.6244V15.2122C4.01408 18.7537 5.64648 21.4098 8.91127 23.1805L18.3042 28.4122C22.6394 30.7732 24.807 34.3146 24.807 39.0366V43.222C24.807 46.7634 23.6296 49.5268 21.2746 51.5122C18.9732 53.4439 15.6014 54.4098 11.1592 54.4098C6.77042 54.4098 3.15775 53.9 0.321127 52.8805V49.0171C3.47887 50.1439 6.93098 50.7073 10.6775 50.7073C17.4211 50.7073 20.793 48.2122 20.793 43.222V39.278C20.793 37.4 20.4451 35.8976 19.7493 34.7707C19.107 33.6439 17.9028 32.5976 16.1366 31.6317L6.74366 26.4805C2.24789 24.0122 0 20.3366 0 15.4537V10.7854Z" fill="#25B1D0"/>
<path d="M45.2807 8.69268H49.4554L31.5 86H26.9765L34.1197 59.239L32.9174 54.0073L22.8019 8.69268H26.9765L32.3554 33.5634L36.0484 51.4317C37.3864 44.7781 40.4638 30.5317 45.2807 8.69268Z" fill="#25B1D0"/>
<path d="M54.5991 10.7854C58.3455 9.28293 61.6906 8.53171 64.6343 8.53171C67.6315 8.53171 70.0934 9.47073 72.0202 11.3488C74.0005 13.2268 74.9906 15.8561 74.9906 19.2366V54.0073H70.9765V19.2366C70.9765 14.5683 68.6751 12.2341 64.0723 12.2341C61.1822 12.2341 58.0512 13.039 54.6793 14.6488V54.0073H50.6653V8.69268H54.5991V10.7854Z" fill="#25B1D0"/>
<path d="M80.9509 41.1293V43.6244C80.9509 46.0927 81.5129 47.9171 82.6368 49.0976C83.8143 50.2244 85.7678 50.7878 88.4974 50.7878C92.4044 50.7878 95.7495 49.5537 98.5326 47.0854V30.6659L87.9354 33.6439C85.3129 34.4488 83.4932 35.4146 82.4762 36.5415C81.4593 37.6683 80.9509 39.1976 80.9509 41.1293ZM89.3002 8.29024C98.0776 8.29024 102.466 11.939 102.466 19.2366V54.0073H98.5326V50.7878C97.5157 51.5927 96.6326 52.2098 95.8833 52.639C94.01 53.7659 91.4678 54.3293 88.2565 54.3293C80.7636 54.3293 77.0171 50.7341 77.0171 43.5439V40.9683C77.0171 35.6561 80.2284 32.0878 86.6509 30.2634L98.5326 26.8829V19.2366C98.5326 16.822 97.8636 15.0512 96.5255 13.9244C95.241 12.7439 92.7523 12.1537 89.0593 12.1537C85.4199 12.1537 82.1016 12.6902 79.1044 13.7634V9.73902C82.1016 8.77317 85.5002 8.29024 89.3002 8.29024Z" fill="#25B1D0"/>
<path d="M127.986 19.2366C127.986 14.5683 125.685 12.2341 121.082 12.2341C118.192 12.2341 115.061 13.039 111.689 14.6488V50.3854H119.396C125.123 50.3854 127.986 47.5683 127.986 41.9341V19.2366ZM111.608 10.8659C115.355 9.30976 118.7 8.53171 121.644 8.53171C124.641 8.53171 127.103 9.47073 129.03 11.3488C131.01 13.2268 132 15.8561 132 19.2366V41.9341C132 45.6366 130.93 48.5878 128.789 50.7878C126.648 52.9341 123.811 54.0073 120.279 54.0073H111.689V66H107.675V8.69268H111.608V10.8659Z" fill="#25B1D0"/>
<path d="M38 66.7517C38 63.8144 39.0088 61.6214 41.0265 60.1728C43.0922 58.7243 46.431 58 51.0428 58C54.1174 58 56.8557 58.3219 59.2577 58.9657V64.1564C56.9518 63.4321 54.4056 63.07 51.6193 63.07C48.833 63.07 46.9835 63.3919 46.0707 64.0357C45.1579 64.6392 44.7016 65.6452 44.7016 67.0535V68.2606C44.7016 69.3471 44.9658 70.1719 45.4942 70.7353C46.0227 71.2986 47.0315 71.9022 48.5207 72.546L54.6458 75.3224C58.7773 77.1733 60.843 79.668 60.843 82.8066V84.3759C60.843 90.331 56.2312 93.3086 47.0075 93.3086C43.8849 93.3086 40.9304 93.0069 38.1441 92.4033V87.1523C40.5942 87.8363 43.2844 88.1783 46.2148 88.1783C49.1933 88.1783 51.235 87.8564 52.3399 87.2126C53.4929 86.5688 54.0694 85.583 54.0694 84.2551V83.2291C54.0694 82.2634 53.7571 81.4989 53.1326 80.9355C52.5561 80.332 51.3791 79.6479 49.6016 78.8834L43.7648 76.3484C39.9216 74.6987 38 72.1436 38 68.6831V66.7517Z" fill="#48667B"/>
<path d="M79.7123 58.3018H86.5064L75.8767 100H68.6849L72.0411 88L59.556 58.3018H66.3297L74.4384 79.5L79.7123 58.3018Z" fill="#48667B"/>
<path d="M85.157 66.7517C85.157 63.8144 86.1658 61.6214 88.1835 60.1728C90.2492 58.7243 93.588 58 98.1998 58C101.274 58 104.013 58.3219 106.415 58.9657V64.1564C104.109 63.4321 101.563 63.07 98.7763 63.07C95.99 63.07 94.1405 63.3919 93.2277 64.0357C92.315 64.6392 91.8586 65.6452 91.8586 67.0535V68.2606C91.8586 69.3471 92.1228 70.1719 92.6512 70.7353C93.1797 71.2986 94.1885 71.9022 95.6778 72.546L101.803 75.3224C105.934 77.1733 108 79.668 108 82.8066V84.3759C108 90.331 103.388 93.3086 94.1645 93.3086C91.0419 93.3086 88.0874 93.0069 85.3011 92.4033V87.1523C87.7512 87.8363 90.4414 88.1783 93.3718 88.1783C96.3503 88.1783 98.392 87.8564 99.4969 87.2126C100.65 86.5688 101.226 85.583 101.226 84.2551V83.2291C101.226 82.2634 100.914 81.4989 100.29 80.9355C99.7131 80.332 98.5361 79.6479 96.7586 78.8834L90.9218 76.3484C87.0786 74.6987 85.157 72.1436 85.157 68.6831V66.7517Z" fill="#48667B"/>
<path d="M136.642 37.1735C137.037 36.4863 138.057 36.6653 138.806 36.9396C140.706 37.6357 144.566 38.9665 147.425 39.4016C151.761 40.0615 154.337 40.1519 158.658 39.4016C162.539 38.7279 164.714 37.9787 168.206 36.1708C169.809 35.3414 171.527 34.2072 172.812 33.3055C174.18 32.3462 175.896 30.3168 177.081 31.4916C177.295 31.7043 177.359 31.9501 177.339 32.1952C177.256 33.1948 176.269 33.847 175.486 34.482C174.447 35.3254 172.775 36.5666 170.79 37.6191C166.802 39.7335 163.157 41.6178 158.658 42.0754C154.277 42.5211 150.857 42.434 146.527 41.7412C143.433 41.2463 139.781 39.8401 137.901 39.0559C137.094 38.7195 136.207 37.9269 136.642 37.1735Z" fill="#25B1D0"/>
<path d="M143.646 82.3771C143.24 81.6958 143.901 80.9053 144.512 80.3958C146.062 79.103 149.138 76.4341 150.934 74.185C153.657 70.7742 155.011 68.5987 156.491 64.5032C157.821 60.825 158.24 58.5801 158.384 54.6752C158.45 52.8839 158.307 50.8416 158.153 49.2876C157.989 47.6341 157.059 45.1513 158.675 44.7116C158.967 44.632 159.214 44.6984 159.419 44.8371C160.254 45.4028 160.337 46.5764 160.506 47.5651C160.731 48.8784 160.992 50.9332 160.932 53.165C160.811 57.6487 160.659 61.7221 158.834 65.8261C157.057 69.8225 155.289 72.7271 152.539 76.117C150.575 78.5386 147.536 80.9905 145.918 82.2231C145.225 82.7518 144.091 83.124 143.646 82.3771Z" fill="#48667B"/>
<path d="M188.033 98.4138C187.235 98.4135 186.886 97.4462 186.755 96.6655C186.423 94.6843 185.674 90.6995 184.637 88.0211C183.065 83.9593 181.867 81.6959 179.067 78.3462C176.553 75.3379 174.819 73.8364 171.504 71.7246C169.983 70.7559 168.138 69.8383 166.711 69.1782C165.193 68.4759 162.565 68.0044 163.007 66.4016C163.087 66.1115 163.27 65.9344 163.495 65.8303C164.411 65.4059 165.472 65.9327 166.416 66.2919C167.669 66.7691 169.585 67.5933 171.491 68.7813C175.32 71.168 178.777 73.3726 181.408 77.0204C183.971 80.5727 185.59 83.5614 187.131 87.635C188.232 90.5449 188.811 94.3875 189.057 96.3959C189.162 97.2574 188.908 98.4141 188.033 98.4138Z" fill="#25B1D0"/>
<path d="M222.296 68.4995C221.901 69.1872 220.88 69.0094 220.132 68.7361C218.231 68.0423 214.369 66.7163 211.509 66.2848C207.172 65.6303 204.596 65.5431 200.276 66.2987C196.396 66.9773 194.223 67.7292 190.732 69.5415C189.131 70.3728 187.414 71.5092 186.13 72.4124C184.763 73.3735 183.05 75.405 181.864 74.2317C181.649 74.0192 181.585 73.7735 181.605 73.5284C181.686 72.5287 182.673 71.8752 183.454 71.2393C184.493 70.3946 186.163 69.1513 188.147 68.0964C192.132 65.977 195.775 64.0882 200.273 63.6249C204.653 63.1738 208.073 63.2567 212.405 63.9441C215.499 64.4351 219.153 65.8368 221.034 66.6187C221.841 66.9541 222.729 67.7456 222.296 68.4995Z" fill="#48667B"/>
<path d="M215.933 23.0171C216.324 23.707 215.645 24.483 215.023 24.9791C213.445 26.238 210.311 28.8395 208.466 31.0491C205.668 34.4 204.266 36.5456 202.696 40.608C201.285 44.2565 200.817 46.4917 200.587 50.3925C200.481 52.182 200.58 54.2269 200.699 55.7838C200.827 57.4405 201.701 59.9429 200.076 60.3475C199.782 60.4207 199.537 60.349 199.335 60.2058C198.513 59.6221 198.455 58.447 198.308 57.4548C198.113 56.137 197.897 54.0771 198.007 51.8471C198.226 47.3671 198.468 43.2979 200.383 39.2346C202.248 35.2777 204.08 32.4122 206.903 29.0827C208.921 26.7043 212.013 24.319 213.657 23.1217C214.363 22.6082 215.504 22.2607 215.933 23.0171Z" fill="#25B1D0"/>
<path d="M170.783 7.27055C171.581 7.27478 171.925 8.2438 172.052 9.02517C172.375 11.008 173.103 14.9965 174.127 17.68C175.678 21.7495 176.865 24.0188 179.648 27.3823C182.147 30.4032 183.873 31.9132 187.178 34.0414C188.693 35.0177 190.534 35.9445 191.957 36.6116C193.472 37.3214 196.097 37.8059 195.648 39.4065C195.566 39.6963 195.382 39.8724 195.157 39.9754C194.239 40.3953 193.181 39.8632 192.238 39.4993C190.987 39.0159 189.075 38.1823 187.176 36.9848C183.359 34.5791 179.913 32.3574 177.3 28.6965C174.755 25.1316 173.151 22.1348 171.631 18.0537C170.545 15.1383 169.985 11.2929 169.749 9.28334C169.648 8.42136 169.908 7.26592 170.783 7.27055Z" fill="#48667B"/>
<path d="M143.041 64.3773C140.837 64.7977 137.545 66.2966 136.063 67.0068C135.552 67.2516 135.036 67.6205 135.002 68.1823C134.99 68.3911 135.03 68.6182 135.177 68.8337C135.566 69.4017 136.43 69.1653 136.681 69.0814C136.728 69.0657 136.771 69.0485 136.817 69.0308C137.384 68.8132 141.429 67.2715 143.827 66.6055C145.511 66.1379 148.483 65.9486 150.349 65.8734C151.465 65.8284 153.049 65.7013 152.926 64.6001C152.817 63.6304 151.868 63.5985 151.806 63.5975L151.805 63.5975L151.802 63.5975C151.73 63.5977 147.025 63.6173 143.041 64.3773Z" fill="#25B1D0"/>
<path d="M170.868 90.0144C170.166 92.1287 169.886 95.71 169.79 97.3402C169.757 97.9021 169.831 98.5285 170.31 98.831C170.488 98.9435 170.707 99.0187 170.969 98.9959C171.658 98.9359 171.87 98.0722 171.918 97.814C171.927 97.7656 171.933 97.7198 171.94 97.6711C172.024 97.0735 172.633 92.8193 173.213 90.4169C173.621 88.7305 174.899 86.0631 175.741 84.4096C176.244 83.4205 176.903 81.9857 175.873 81.557C174.966 81.1794 174.476 81.9864 174.445 82.0399L174.443 82.0433C174.408 82.1053 172.137 86.1918 170.868 90.0144Z" fill="#48667B"/>
<path d="M206.732 78.3973C208.222 80.062 211.202 82.1032 212.574 83.0047C213.048 83.3154 213.631 83.5669 214.135 83.3088C214.322 83.2129 214.499 83.0623 214.61 82.8267C214.904 82.2056 214.258 81.5896 214.057 81.4185C214.02 81.3864 213.983 81.3583 213.944 81.3279C213.465 80.9552 210.064 78.294 208.262 76.5889C206.996 75.3919 205.315 72.9544 204.297 71.4016C203.688 70.4728 202.768 69.1866 201.877 69.8542C201.092 70.442 201.549 71.2677 201.58 71.3213L201.582 71.3248C201.618 71.3855 204.038 75.3875 206.732 78.3973Z" fill="#25B1D0"/>
<path d="M215.058 41.0997C217.251 40.6254 220.504 39.0464 221.968 38.3C222.473 38.0428 222.98 37.6614 222.999 37.0989C223.007 36.8899 222.96 36.6639 222.808 36.4521C222.406 35.8937 221.548 36.1512 221.299 36.2412C221.252 36.2581 221.21 36.2763 221.164 36.2952C220.602 36.5266 216.598 38.1668 214.216 38.8914C212.545 39.4001 209.579 39.6622 207.715 39.7831C206.6 39.8554 205.02 40.0213 205.17 41.1191C205.303 42.0858 206.253 42.0945 206.315 42.094L206.316 42.094L206.319 42.0939C206.39 42.0919 211.093 41.9571 215.058 41.0997Z" fill="#48667B"/>
<path d="M186.545 15.9852C187.27 13.8786 187.591 10.3006 187.704 8.67156C187.743 8.11011 187.676 7.48289 187.201 7.17518C187.024 7.06082 186.805 6.98319 186.544 7.00312C185.854 7.05565 185.632 7.917 185.581 8.17468C185.572 8.22293 185.565 8.26869 185.558 8.31731C185.467 8.91393 184.811 13.1613 184.204 15.5572C183.779 17.2391 182.47 19.8924 181.611 21.5366C181.096 22.5202 180.422 23.9477 181.447 24.3876C182.35 24.7751 182.849 23.9735 182.88 23.9203L182.882 23.9169C182.918 23.8553 185.234 19.7938 186.545 15.9852Z" fill="#25B1D0"/>
<path d="M151.195 28.1751C149.727 26.4918 146.773 24.4135 145.411 23.4948C144.942 23.1782 144.362 22.9195 143.855 23.1713C143.666 23.2648 143.488 23.4132 143.374 23.6474C143.072 24.2647 143.71 24.8888 143.908 25.0624C143.946 25.0949 143.982 25.1235 144.021 25.1544C144.494 25.5331 147.862 28.2367 149.642 29.9641C150.892 31.1769 152.543 33.6352 153.541 35.2006C154.138 36.137 155.041 37.4345 155.941 36.7782C156.734 36.2002 156.287 35.3689 156.257 35.3149L156.255 35.3114C156.219 35.2502 153.85 31.2183 151.195 28.1751Z" fill="#48667B"/>
<path fill-rule="evenodd" clip-rule="evenodd" d="M178.649 63.0404C184.295 63.0404 188.871 58.5014 188.871 52.9022C188.871 47.303 184.295 42.764 178.649 42.764C173.004 42.764 168.427 47.303 168.427 52.9022C168.427 58.5014 173.004 63.0404 178.649 63.0404ZM178.649 60.3666C182.806 60.3666 186.176 57.0247 186.176 52.9022C186.176 48.7797 182.806 45.4378 178.649 45.4378C174.493 45.4378 171.123 48.7797 171.123 52.9022C171.123 57.0247 174.493 60.3666 178.649 60.3666Z" fill="#48667B"/>
</svg>
