<?xml version="1.0" standalone="no"?>
<svg xmlns:xlink="http://www.w3.org/1999/xlink" id="wave" style="transform:rotate(180deg); transition: 0.3s" viewBox="0 0 1440 100" version="1.1" xmlns="http://www.w3.org/2000/svg"><defs><linearGradient id="sw-gradient-0" x1="0" x2="0" y1="1" y2="0"><stop stop-color="rgba(151, 203, 248, 1)" offset="0%"/><stop stop-color="rgba(151, 203, 248, 1)" offset="100%"/></linearGradient></defs><path style="transform:translate(0, 0px); opacity:1" fill="url(#sw-gradient-0)" d="M0,80L40,68.3C80,57,160,33,240,35C320,37,400,63,480,61.7C560,60,640,30,720,15C800,0,880,0,960,15C1040,30,1120,60,1200,63.3C1280,67,1360,43,1440,33.3C1520,23,1600,27,1680,33.3C1760,40,1840,50,1920,58.3C2000,67,2080,73,2160,68.3C2240,63,2320,47,2400,43.3C2480,40,2560,50,2640,45C2720,40,2800,20,2880,18.3C2960,17,3040,33,3120,36.7C3200,40,3280,30,3360,21.7C3440,13,3520,7,3600,13.3C3680,20,3760,40,3840,50C3920,60,4000,60,4080,55C4160,50,4240,40,4320,38.3C4400,37,4480,43,4560,48.3C4640,53,4720,57,4800,55C4880,53,4960,47,5040,38.3C5120,30,5200,20,5280,23.3C5360,27,5440,43,5520,48.3C5600,53,5680,47,5720,43.3L5760,40L5760,100L5720,100C5680,100,5600,100,5520,100C5440,100,5360,100,5280,100C5200,100,5120,100,5040,100C4960,100,4880,100,4800,100C4720,100,4640,100,4560,100C4480,100,4400,100,4320,100C4240,100,4160,100,4080,100C4000,100,3920,100,3840,100C3760,100,3680,100,3600,100C3520,100,3440,100,3360,100C3280,100,3200,100,3120,100C3040,100,2960,100,2880,100C2800,100,2720,100,2640,100C2560,100,2480,100,2400,100C2320,100,2240,100,2160,100C2080,100,2000,100,1920,100C1840,100,1760,100,1680,100C1600,100,1520,100,1440,100C1360,100,1280,100,1200,100C1120,100,1040,100,960,100C880,100,800,100,720,100C640,100,560,100,480,100C400,100,320,100,240,100C160,100,80,100,40,100L0,100Z"/></svg>