<?xml version="1.0" standalone="no"?>
<svg xmlns:xlink="http://www.w3.org/1999/xlink" id="wave" style="transform:rotate(180deg); transition: 0.3s" viewBox="0 0 1440 100" version="1.1" xmlns="http://www.w3.org/2000/svg"><defs><linearGradient id="sw-gradient-0" x1="0" x2="0" y1="1" y2="0"><stop stop-color="rgba(89, 156, 219, 1)" offset="0%"/><stop stop-color="rgba(89, 156, 219, 1)" offset="100%"/></linearGradient></defs><path style="transform:translate(0, 0px); opacity:1" fill="url(#sw-gradient-0)" d="M0,90L40,80C80,70,160,50,240,43.3C320,37,400,43,480,53.3C560,63,640,77,720,68.3C800,60,880,30,960,28.3C1040,27,1120,53,1200,61.7C1280,70,1360,60,1440,55C1520,50,1600,50,1680,56.7C1760,63,1840,77,1920,80C2000,83,2080,77,2160,76.7C2240,77,2320,83,2400,73.3C2480,63,2560,37,2640,33.3C2720,30,2800,50,2880,51.7C2960,53,3040,37,3120,33.3C3200,30,3280,40,3360,40C3440,40,3520,30,3600,26.7C3680,23,3760,27,3840,28.3C3920,30,4000,30,4080,33.3C4160,37,4240,43,4320,53.3C4400,63,4480,77,4560,71.7C4640,67,4720,43,4800,41.7C4880,40,4960,60,5040,61.7C5120,63,5200,47,5280,38.3C5360,30,5440,30,5520,40C5600,50,5680,70,5720,80L5760,90L5760,100L5720,100C5680,100,5600,100,5520,100C5440,100,5360,100,5280,100C5200,100,5120,100,5040,100C4960,100,4880,100,4800,100C4720,100,4640,100,4560,100C4480,100,4400,100,4320,100C4240,100,4160,100,4080,100C4000,100,3920,100,3840,100C3760,100,3680,100,3600,100C3520,100,3440,100,3360,100C3280,100,3200,100,3120,100C3040,100,2960,100,2880,100C2800,100,2720,100,2640,100C2560,100,2480,100,2400,100C2320,100,2240,100,2160,100C2080,100,2000,100,1920,100C1840,100,1760,100,1680,100C1600,100,1520,100,1440,100C1360,100,1280,100,1200,100C1120,100,1040,100,960,100C880,100,800,100,720,100C640,100,560,100,480,100C400,100,320,100,240,100C160,100,80,100,40,100L0,100Z"/></svg>