<?xml version="1.0" standalone="no"?>
<svg xmlns:xlink="http://www.w3.org/1999/xlink" id="wave" style="transform:rotate(180deg); transition: 0.3s" viewBox="0 0 1440 100" version="1.1" xmlns="http://www.w3.org/2000/svg"><defs><linearGradient id="sw-gradient-0" x1="0" x2="0" y1="1" y2="0"><stop stop-color="rgba(191, 225, 255, 1)" offset="0%"/><stop stop-color="rgba(191, 225, 255, 1)" offset="100%"/></linearGradient></defs><path style="transform:translate(0, 0px); opacity:1" fill="url(#sw-gradient-0)" d="M0,40L26.7,43.3C53.3,47,107,53,160,48.3C213.3,43,267,27,320,30C373.3,33,427,57,480,68.3C533.3,80,587,80,640,66.7C693.3,53,747,27,800,25C853.3,23,907,47,960,56.7C1013.3,67,1067,63,1120,53.3C1173.3,43,1227,27,1280,30C1333.3,33,1387,57,1440,58.3C1493.3,60,1547,40,1600,40C1653.3,40,1707,60,1760,65C1813.3,70,1867,60,1920,53.3C1973.3,47,2027,43,2080,36.7C2133.3,30,2187,20,2240,25C2293.3,30,2347,50,2400,61.7C2453.3,73,2507,77,2560,73.3C2613.3,70,2667,60,2720,58.3C2773.3,57,2827,63,2880,56.7C2933.3,50,2987,30,3040,33.3C3093.3,37,3147,63,3200,66.7C3253.3,70,3307,50,3360,36.7C3413.3,23,3467,17,3520,21.7C3573.3,27,3627,43,3680,48.3C3733.3,53,3787,47,3813,43.3L3840,40L3840,100L3813.3,100C3786.7,100,3733,100,3680,100C3626.7,100,3573,100,3520,100C3466.7,100,3413,100,3360,100C3306.7,100,3253,100,3200,100C3146.7,100,3093,100,3040,100C2986.7,100,2933,100,2880,100C2826.7,100,2773,100,2720,100C2666.7,100,2613,100,2560,100C2506.7,100,2453,100,2400,100C2346.7,100,2293,100,2240,100C2186.7,100,2133,100,2080,100C2026.7,100,1973,100,1920,100C1866.7,100,1813,100,1760,100C1706.7,100,1653,100,1600,100C1546.7,100,1493,100,1440,100C1386.7,100,1333,100,1280,100C1226.7,100,1173,100,1120,100C1066.7,100,1013,100,960,100C906.7,100,853,100,800,100C746.7,100,693,100,640,100C586.7,100,533,100,480,100C426.7,100,373,100,320,100C266.7,100,213,100,160,100C106.7,100,53,100,27,100L0,100Z"/></svg>